<svg width="21" height="21" viewBox="0 0 21 21" fill="none" xmlns="http://www.w3.org/2000/svg">
<path fill-rule="evenodd" clip-rule="evenodd" d="M12.1026 4.07874C11.3938 2.84078 9.60839 2.84078 8.89956 4.07874L2.35333 15.5116C1.47005 17.0542 3.06419 18.8312 4.69329 18.1199L9.76263 15.2913C10.2335 15.0858 10.7687 15.0858 11.2395 15.2913L16.3089 18.1199C17.938 18.8312 19.5321 17.0542 18.6488 15.5116L12.1026 4.07874ZM10.5595 12.3776C11.4937 12.3776 12.2511 11.6202 12.2511 10.6859C12.2511 9.75163 11.4937 8.99424 10.5595 8.99424C9.62516 8.99424 8.86777 9.75163 8.86777 10.6859C8.86777 11.6202 9.62516 12.3776 10.5595 12.3776Z" fill="#EBEAFC"/>
<path d="M7.00021 7.39497L4.69281 6.38752C3.0637 5.67622 1.46956 7.45315 2.35284 8.99579L4.21822 12.2536L7.00021 7.39497Z" fill="#8880EB"/>
<path d="M16.7829 12.2536L14.001 7.39497L16.3084 6.38752C17.9375 5.67622 19.5316 7.45315 18.6483 8.99579L16.7829 12.2536Z" fill="#8880EB"/>
</svg>
