<svg width="23" height="32" viewBox="0 0 23 32" fill="none" xmlns="http://www.w3.org/2000/svg">
<g clip-path="url(#clip0_216_4121)">
<path d="M22.6709 6.28876L20.6055 29.4262L11.3216 32L2.06319 29.4298L0 6.28876H22.6709Z" fill="#264DE4"/>
<path d="M18.8368 27.9528L20.6018 8.18085H11.335V30.0327L18.8368 27.9528Z" fill="#2965F1"/>
<path d="M4.72949 16.7635L4.98387 19.6017H11.3351V16.7635H4.72949Z" fill="#EBEBEB"/>
<path d="M11.3355 11.019H11.3257H4.21875L4.47675 13.8572H11.3355V11.019Z" fill="#EBEBEB"/>
<path d="M11.3358 27.0874V24.1346L11.3233 24.1379L8.16245 23.2844L7.96039 21.0208H6.42445H5.11133L5.50895 25.4771L11.3227 27.0911L11.3358 27.0874Z" fill="#EBEBEB"/>
<path d="M5.33496 0H8.77246V1.4375H6.77246V2.875H8.77246V4.3125H5.33496V0Z" fill="white"/>
<path d="M9.45996 0H12.8975V1.25H10.8975V1.5H12.8975V4.375H9.45996V3.0625H11.46V2.8125H9.45996V0Z" fill="white"/>
<path d="M13.585 0H17.0225V1.25H15.0225V1.5H17.0225V4.375H13.585V3.0625H15.585V2.8125H13.585V0Z" fill="white"/>
<path d="M14.8201 19.6017L14.4906 23.2825L11.3252 24.1369V27.0897L17.1436 25.4771L17.1863 24.9976L17.8532 17.5257L17.9224 16.7635L18.4348 11.019H11.3252V13.8572H15.3244L15.0662 16.7635H11.3252V19.6017H14.8201Z" fill="white"/>
</g>
<defs>
<clipPath id="clip0_216_4121">
<rect width="22.6709" height="32" fill="white"/>
</clipPath>
</defs>
</svg>
