<svg width="16" height="14" viewBox="0 0 16 14" fill="none" xmlns="http://www.w3.org/2000/svg">
<path d="M13.5535 1.81854C12.5178 1.33396 11.4104 0.981781 10.2526 0.78125C10.1104 1.03832 9.94429 1.38409 9.82976 1.65915C8.599 1.47406 7.37956 1.47406 6.17144 1.65915C6.05693 1.38409 5.88704 1.03832 5.74357 0.78125C4.58454 0.981781 3.47584 1.33525 2.44013 1.8211C0.351095 4.97791 -0.215207 8.0563 0.0679444 11.091C1.4535 12.1257 2.79627 12.7542 4.11638 13.1655C4.44233 12.7169 4.73302 12.2401 4.98345 11.7375C4.5065 11.5563 4.04969 11.3326 3.61805 11.073C3.73256 10.9882 3.84457 10.8995 3.95279 10.8082C6.58546 12.0396 9.44593 12.0396 12.0472 10.8082C12.1566 10.8995 12.2686 10.9882 12.3819 11.073C11.949 11.3339 11.4909 11.5576 11.014 11.7388C11.2644 12.2401 11.5538 12.7182 11.881 13.1668C13.2024 12.7555 14.5464 12.127 15.932 11.091C16.2642 7.57301 15.3644 4.52289 13.5535 1.81854ZM5.34212 9.22468C4.55181 9.22468 3.9037 8.48688 3.9037 7.58843C3.9037 6.68998 4.53797 5.95091 5.34212 5.95091C6.14628 5.95091 6.79437 6.68868 6.78053 7.58843C6.78178 8.48688 6.14628 9.22468 5.34212 9.22468ZM10.6578 9.22468C9.86752 9.22468 9.21941 8.48688 9.21941 7.58843C9.21941 6.68998 9.85366 5.95091 10.6578 5.95091C11.462 5.95091 12.1101 6.68868 12.0962 7.58843C12.0962 8.48688 11.462 9.22468 10.6578 9.22468Z" fill="#5865F2"/>
</svg>
