<svg width="13" height="20" viewBox="0 0 13 20" fill="none" xmlns="http://www.w3.org/2000/svg">
<path d="M12.4167 0.791725C12.4167 0.648066 12.3596 0.510291 12.258 0.408708C12.1564 0.307126 12.0187 0.250058 11.875 0.250058H9.16667C7.80288 0.182123 6.46765 0.656732 5.4527 1.57019C4.43775 2.48364 3.8256 3.76168 3.75 5.12506V8.05006H1.04167C0.898008 8.05006 0.760233 8.10713 0.658651 8.20871C0.557068 8.31029 0.5 8.44806 0.5 8.59172V11.4084C0.5 11.552 0.557068 11.6898 0.658651 11.7914C0.760233 11.893 0.898008 11.9501 1.04167 11.9501H3.75V19.2084C3.75 19.352 3.80707 19.4898 3.90865 19.5914C4.01023 19.693 4.14801 19.7501 4.29167 19.7501H7.54167C7.68533 19.7501 7.8231 19.693 7.92468 19.5914C8.02626 19.4898 8.08333 19.352 8.08333 19.2084V11.9501H10.9217C11.0421 11.9518 11.1597 11.9133 11.2559 11.8407C11.352 11.7681 11.4212 11.6656 11.4525 11.5492L12.2325 8.73256C12.2541 8.65252 12.2569 8.56861 12.241 8.48728C12.225 8.40595 12.1906 8.32937 12.1403 8.26344C12.0901 8.19751 12.0254 8.14399 11.9512 8.107C11.8771 8.07 11.7954 8.05052 11.7125 8.05006H8.08333V5.12506C8.11028 4.85691 8.23621 4.60843 8.43653 4.42814C8.63684 4.24786 8.89717 4.14871 9.16667 4.15006H11.875C12.0187 4.15006 12.1564 4.09299 12.258 3.99141C12.3596 3.88982 12.4167 3.75205 12.4167 3.60839V0.791725Z" fill="#194BFB"/>
</svg>
