<svg width="32" height="32" viewBox="0 0 32 32" fill="none" xmlns="http://www.w3.org/2000/svg">
<path d="M32 0H0V32H32V0Z" fill="#F7DF1E"/>
<path d="M21.496 25.0002C22.1406 26.0526 22.9792 26.8262 24.4624 26.8262C25.7083 26.8262 26.5043 26.2035 26.5043 25.343C26.5043 24.3119 25.6865 23.9467 24.3151 23.3468L23.5633 23.0243C21.3934 22.0998 19.9519 20.9417 19.9519 18.4935C19.9519 16.2382 21.6702 14.5214 24.3557 14.5214C26.2676 14.5214 27.642 15.1868 28.6325 16.929L26.2909 18.4325C25.7754 17.5081 25.2192 17.1439 24.3557 17.1439C23.4749 17.1439 22.9167 17.7026 22.9167 18.4325C22.9167 19.3346 23.4754 19.6998 24.7656 20.2586L25.5173 20.5806C28.0723 21.6762 29.5148 22.7932 29.5148 25.3044C29.5148 28.0117 27.3881 29.4949 24.5319 29.4949C21.7393 29.4949 19.9351 28.1641 19.0523 26.4198L21.496 25.0002ZM10.8735 25.2607C11.3459 26.0988 11.7756 26.8074 12.8088 26.8074C13.7967 26.8074 14.4199 26.4209 14.4199 24.9179V14.6931H17.4269V24.9585C17.4269 28.0722 15.6014 29.4893 12.9368 29.4893C10.5291 29.4893 9.13486 28.2433 8.42578 26.7426L10.8735 25.2607Z" fill="black"/>
</svg>
