<?xml version="1.0" encoding="utf-8"?>
<!-- Generator: Adobe Illustrator 27.3.1, SVG Export Plug-In . SVG Version: 6.00 Build 0)  -->
<svg version="1.1" id="Layer_1" xmlns="http://www.w3.org/2000/svg" xmlns:xlink="http://www.w3.org/1999/xlink" x="0px" y="0px"
	 viewBox="0 0 140 29" style="enable-background:new 0 0 140 29;" xml:space="preserve">
<style type="text/css">
	.st0{fill:#FFFFFF;}
	.st1{fill-rule:evenodd;clip-rule:evenodd;fill:#2563EB;}
	.st2{clip-path:url(#SVGID_00000135667684613678023260000002531902773303431081_);fill:#2563EB;}
</style>
<g>
	<path class="st0" d="M40,10.3v-3h14.3v3H49v14.4h-3.6V10.3H40z"/>
	<path class="st0" d="M54.7,24.8V11.7h3.5V14h0.1c0.2-0.8,0.6-1.4,1.2-1.8c0.6-0.4,1.2-0.6,1.9-0.6c0.2,0,0.4,0,0.6,0
		c0.2,0,0.4,0.1,0.6,0.1v3.2c-0.2-0.1-0.4-0.1-0.7-0.1c-0.3,0-0.6-0.1-0.8-0.1c-0.5,0-1,0.1-1.4,0.3s-0.7,0.5-1,1
		c-0.2,0.4-0.4,0.9-0.4,1.4v7.4H54.7z"/>
	<path class="st0" d="M67.3,25c-0.8,0-1.6-0.1-2.2-0.4c-0.7-0.3-1.2-0.7-1.5-1.3C63.2,22.7,63,22,63,21.1c0-0.7,0.1-1.3,0.4-1.8
		c0.3-0.5,0.6-0.9,1.1-1.2c0.5-0.3,1-0.5,1.6-0.7c0.6-0.2,1.2-0.3,1.9-0.3c0.8-0.1,1.4-0.2,1.8-0.2s0.8-0.2,1-0.3
		c0.2-0.1,0.3-0.4,0.3-0.6v-0.1c0-0.5-0.2-1-0.5-1.3s-0.8-0.4-1.4-0.4c-0.7,0-1.2,0.1-1.6,0.4c-0.4,0.3-0.6,0.6-0.8,1.1l-3.4-0.3
		c0.2-0.8,0.5-1.5,1-2.1s1.1-1,1.9-1.3s1.7-0.5,2.8-0.5c0.7,0,1.4,0.1,2.1,0.3s1.3,0.4,1.8,0.8s0.9,0.8,1.2,1.4
		c0.3,0.6,0.5,1.2,0.5,2v8.8h-3.4V23h-0.1c-0.2,0.4-0.5,0.8-0.8,1.1c-0.4,0.3-0.8,0.6-1.3,0.7C68.5,24.9,67.9,25,67.3,25z
		 M68.3,22.5c0.5,0,1-0.1,1.4-0.3s0.7-0.5,1-0.9c0.2-0.4,0.3-0.8,0.3-1.2v-1.4c-0.1,0.1-0.3,0.1-0.5,0.2s-0.4,0.1-0.7,0.2
		c-0.2,0-0.5,0.1-0.7,0.1s-0.5,0.1-0.7,0.1c-0.4,0.1-0.8,0.2-1.1,0.3c-0.3,0.1-0.6,0.3-0.7,0.5c-0.2,0.2-0.3,0.5-0.3,0.9
		c0,0.5,0.2,0.9,0.5,1.1C67.3,22.4,67.7,22.5,68.3,22.5z"/>
	<path class="st0" d="M82.8,25c-1.3,0-2.5-0.3-3.5-0.9s-1.7-1.4-2.2-2.4s-0.8-2.2-0.8-3.5s0.3-2.5,0.8-3.5s1.3-1.8,2.2-2.4
		c1-0.6,2.1-0.9,3.4-0.9c1.1,0,2.1,0.2,3,0.6c0.9,0.4,1.5,1,2,1.7s0.8,1.6,0.8,2.6h-3.4c-0.1-0.7-0.4-1.2-0.8-1.6
		c-0.4-0.4-1-0.6-1.6-0.6s-1.1,0.2-1.5,0.5s-0.7,0.7-1,1.3c-0.1,0.8-0.2,1.5-0.2,2.3s0.1,1.5,0.3,2.1c0.2,0.6,0.6,1,1,1.3
		s0.9,0.5,1.5,0.5c0.4,0,0.8-0.1,1.1-0.3c0.3-0.2,0.6-0.4,0.8-0.7c0.2-0.3,0.4-0.7,0.4-1.2h3.4c-0.1,1-0.3,1.9-0.8,2.6
		c-0.5,0.8-1.2,1.4-2,1.8C84.9,24.8,83.9,25,82.8,25z"/>
	<path class="st0" d="M90.3,24.8V7.3H94v17.5H90.3z M93.6,21v-4.4h0.5l4.2-5h4.2l-5.6,6.6H96L93.6,21z M98.5,24.8l-3.9-5.7l2.4-2.6
		l5.7,8.3C102.7,24.8,98.5,24.8,98.5,24.8z"/>
	<path class="st0" d="M109.1,25c-1.3,0-2.5-0.3-3.5-0.8s-1.7-1.3-2.2-2.3s-0.8-2.2-0.8-3.6c0-1.3,0.3-2.5,0.8-3.5s1.3-1.8,2.2-2.4
		c1-0.6,2.1-0.9,3.4-0.9c0.9,0,1.7,0.1,2.4,0.4c0.7,0.3,1.4,0.7,2,1.2s1,1.2,1.3,2.1c0.3,0.8,0.5,1.8,0.5,2.9v1h-11.1v-2.2h7.6
		c0-0.5-0.1-1-0.3-1.4c-0.2-0.4-0.5-0.7-0.9-1c-0.4-0.2-0.9-0.3-1.4-0.3c-0.6,0-1,0.1-1.5,0.4c-0.4,0.3-0.8,0.6-1,1
		s-0.4,0.9-0.4,1.4v2.1c0,0.6,0.1,1.2,0.4,1.7c0.2,0.5,0.6,0.8,1,1.1s1,0.4,1.6,0.4c0.4,0,0.8-0.1,1.1-0.2c0.3-0.1,0.6-0.3,0.9-0.5
		c0.2-0.2,0.4-0.5,0.5-0.8l3.4,0.2c-0.2,0.8-0.5,1.5-1,2.1s-1.2,1.1-2,1.4C111.2,24.8,110.2,25,109.1,25z"/>
	<path class="st0" d="M116.9,24.8V11.7h3.5V14h0.1c0.2-0.8,0.6-1.4,1.2-1.8c0.6-0.4,1.2-0.6,1.9-0.6c0.2,0,0.4,0,0.6,0
		s0.4,0.1,0.6,0.1v3.2c-0.2-0.1-0.4-0.1-0.7-0.1c-0.3,0-0.6-0.1-0.8-0.1c-0.5,0-1,0.1-1.4,0.3s-0.7,0.5-1,1
		c-0.2,0.4-0.4,0.9-0.4,1.4v7.4H116.9z"/>
</g>
<g>
	<g>
		<path id="SVGID_1_" class="st1" d="M22.6,17.5l3.7,3.7c1.2-2,1.9-4.4,1.9-6.7c0-7.2-5.9-13.1-13.1-13.1c-2.4,0-4.7,0.6-6.7,1.9
			L12,7c1-0.4,2-0.6,3-0.6c4.5,0,8.1,3.6,8.1,8.1C23.2,15.5,23,16.6,22.6,17.5 M9,9.1L5.5,5.6C3.3,8,2,11.2,2,14.5
			c0,7.2,5.9,13.1,13.1,13.1h12.4l-7-7c-1.4,1.3-3.3,2.1-5.4,2.1c-4.5,0-8.1-3.6-8.1-8.1C7,12.5,7.7,10.6,9,9.1z M15.1,18.4
			c-2.2,0-3.9-1.8-3.9-3.9c0-2.2,1.8-3.9,3.9-3.9c2.2,0,3.9,1.8,3.9,3.9S17.2,18.4,15.1,18.4z"/>
	</g>
	<g>
		<defs>
			<path id="SVGID_00000069392317209225246680000001542397552703879064_" d="M22.6,17.5l3.7,3.7c1.2-2,1.9-4.4,1.9-6.7
				c0-7.2-5.9-13.1-13.1-13.1c-2.4,0-4.7,0.6-6.7,1.9L12,7c1-0.4,2-0.6,3-0.6c4.5,0,8.1,3.6,8.1,8.1C23.2,15.5,23,16.6,22.6,17.5
				 M9,9.1L5.5,5.6C3.3,8,2,11.2,2,14.5c0,7.2,5.9,13.1,13.1,13.1h12.4l-7-7c-1.4,1.3-3.3,2.1-5.4,2.1c-4.5,0-8.1-3.6-8.1-8.1
				C7,12.5,7.7,10.6,9,9.1z M15.1,18.4c-2.2,0-3.9-1.8-3.9-3.9c0-2.2,1.8-3.9,3.9-3.9c2.2,0,3.9,1.8,3.9,3.9S17.2,18.4,15.1,18.4z"
				/>
		</defs>
		<clipPath id="SVGID_00000153697538618229823120000012254909528791711397_">
			<use xlink:href="#SVGID_00000069392317209225246680000001542397552703879064_"  style="overflow:visible;"/>
		</clipPath>
		
			<rect x="2" y="1.4" style="clip-path:url(#SVGID_00000153697538618229823120000012254909528791711397_);fill:#2563EB;" width="26.2" height="26.2"/>
	</g>
</g>
</svg>
