<svg width="14" height="18" viewBox="0 0 14 18" fill="none" xmlns="http://www.w3.org/2000/svg">
<path d="M8.47903 6.88303C6.85303 6.27903 5.96703 5.81603 5.96703 5.08003C5.96703 4.45803 6.47803 4.10303 7.39003 4.10303C9.05703 4.10303 10.769 4.74503 11.948 5.32303L12.614 1.21203C11.679 0.766034 9.76703 0.0350342 7.12403 0.0350342C5.25403 0.0350342 3.69903 0.524034 2.58803 1.43603C1.43303 2.39003 0.831027 3.77003 0.831027 5.43603C0.831027 8.45903 2.67803 9.74803 5.67803 10.839C7.61403 11.527 8.25703 12.017 8.25703 12.773C8.25703 13.505 7.62803 13.928 6.49503 13.928C5.09203 13.928 2.77903 13.239 1.26403 12.35L0.590027 16.507C1.89403 17.239 4.29503 17.995 6.78703 17.995C8.76303 17.995 10.411 17.528 11.522 16.639C12.767 15.662 13.412 14.217 13.412 12.35C13.412 9.25904 11.523 7.97003 8.47703 6.88203H8.47903V6.88303Z" fill="#936DFF"/>
</svg>
