<svg width="24" height="24" viewBox="0 0 24 24" fill="none" xmlns="http://www.w3.org/2000/svg">
<g clip-path="url(#clip0_161_2891)">
<path d="M5.14016 15.1181C5.14016 16.4976 4.0252 17.6126 2.64567 17.6126C1.26614 17.6126 0.151184 16.4976 0.151184 15.1181C0.151184 13.7386 1.26614 12.6236 2.64567 12.6236H5.14016V15.1181ZM6.3874 15.1181C6.3874 13.7386 7.50237 12.6236 8.88189 12.6236C10.2614 12.6236 11.3764 13.7386 11.3764 15.1181V21.3543C11.3764 22.7338 10.2614 23.8488 8.88189 23.8488C7.50237 23.8488 6.3874 22.7338 6.3874 21.3543V15.1181Z" fill="#E01E5A"/>
<path d="M8.88144 5.10238C7.50191 5.10238 6.38695 3.98742 6.38695 2.60789C6.38695 1.22836 7.50191 0.113403 8.88144 0.113403C10.261 0.113403 11.3759 1.22836 11.3759 2.60789V5.10238H8.88144ZM8.88144 6.36852C10.261 6.36852 11.3759 7.48348 11.3759 8.86301C11.3759 10.2425 10.261 11.3575 8.88144 11.3575H2.62632C1.2468 11.3575 0.131836 10.2425 0.131836 8.86301C0.131836 7.48348 1.2468 6.36852 2.62632 6.36852H8.88144Z" fill="#36C5F0"/>
<path d="M18.8787 8.86301C18.8787 7.48348 19.9937 6.36852 21.3732 6.36852C22.7528 6.36852 23.8677 7.48348 23.8677 8.86301C23.8677 10.2425 22.7528 11.3575 21.3732 11.3575H18.8787V8.86301ZM17.6315 8.86301C17.6315 10.2425 16.5165 11.3575 15.137 11.3575C13.7575 11.3575 12.6425 10.2425 12.6425 8.86301V2.60789C12.6425 1.22836 13.7575 0.113403 15.137 0.113403C16.5165 0.113403 17.6315 1.22836 17.6315 2.60789V8.86301Z" fill="#2EB67D"/>
<path d="M15.137 18.8598C16.5165 18.8598 17.6315 19.9748 17.6315 21.3543C17.6315 22.7338 16.5165 23.8488 15.137 23.8488C13.7575 23.8488 12.6425 22.7338 12.6425 21.3543V18.8598H15.137ZM15.137 17.6126C13.7575 17.6126 12.6425 16.4976 12.6425 15.1181C12.6425 13.7386 13.7575 12.6236 15.137 12.6236H21.3921C22.7716 12.6236 23.8866 13.7386 23.8866 15.1181C23.8866 16.4976 22.7716 17.6126 21.3921 17.6126H15.137Z" fill="#ECB22E"/>
</g>
<defs>
<clipPath id="clip0_161_2891">
<rect width="24" height="24" fill="white"/>
</clipPath>
</defs>
</svg>
