<svg width="16" height="16" viewBox="0 0 16 16" fill="none" xmlns="http://www.w3.org/2000/svg">
<path d="M7.99969 0.0263672C3.59503 0.0263672 0.0241699 3.59713 0.0241699 8.0018C0.0241699 12.4067 3.59503 15.9771 7.99969 15.9771C12.4048 15.9771 15.9753 12.4067 15.9753 8.0018C15.9753 3.59741 12.4048 0.0267481 7.9996 0.0267481L7.99969 0.0263672ZM11.6572 11.5292C11.5144 11.7635 11.2077 11.8378 10.9734 11.694C9.10084 10.5502 6.7435 10.2911 3.96731 10.9254C3.69979 10.9864 3.43312 10.8187 3.37217 10.5511C3.31093 10.2835 3.47788 10.0168 3.74607 9.95589C6.78417 9.26151 9.39017 9.56065 11.4925 10.8454C11.7267 10.9892 11.801 11.2949 11.6572 11.5292ZM12.6334 9.35732C12.4534 9.65018 12.0706 9.74256 11.7782 9.56256C9.63436 8.24456 6.36646 7.86294 3.83074 8.63265C3.50188 8.73199 3.15455 8.54665 3.05474 8.21837C2.95569 7.88951 3.14112 7.54284 3.46941 7.44284C6.36588 6.56399 9.96674 6.9897 12.4286 8.50256C12.721 8.68256 12.8134 9.06541 12.6334 9.35742V9.35732ZM12.7172 7.09599C10.1467 5.56922 5.90579 5.42884 3.4516 6.1737C3.0575 6.29322 2.64074 6.07075 2.52131 5.67665C2.40188 5.28237 2.62417 4.86589 3.01855 4.74608C5.83579 3.89084 10.5191 4.05608 13.4786 5.81294C13.8338 6.02332 13.95 6.48113 13.7395 6.83513C13.53 7.18961 13.0709 7.30646 12.7176 7.09599H12.7172Z" fill="#1ED760"/>
</svg>
