<svg width="68" height="48" viewBox="0 0 68 48" fill="none" xmlns="http://www.w3.org/2000/svg">
<rect x="0.5" y="0.5" width="67" height="47" rx="7.5" fill="#1E2431"/>
<path fill-rule="evenodd" clip-rule="evenodd" d="M34.3583 33.6586C31.9901 35.6548 28.9182 36.8599 25.5614 36.8599C18.0716 36.8599 12 30.8605 12 23.4599C12 16.0593 18.0716 10.0599 25.5614 10.0599C28.9182 10.0599 31.9901 11.265 34.3583 13.2613C36.7264 11.265 39.7984 10.0599 43.1552 10.0599C50.6449 10.0599 56.7166 16.0593 56.7166 23.4599C56.7166 30.8605 50.6449 36.8599 43.1552 36.8599C39.7984 36.8599 36.7264 35.6548 34.3583 33.6586Z" fill="#ED0006"/>
<path fill-rule="evenodd" clip-rule="evenodd" d="M34.3574 33.6594C37.2737 31.2016 39.1229 27.5442 39.1229 23.4599C39.1229 19.3757 37.2737 15.7183 34.3574 13.2605C36.7254 11.2647 39.797 10.0599 43.1533 10.0599C50.6431 10.0599 56.7147 16.0593 56.7147 23.4599C56.7147 30.8606 50.6431 36.8599 43.1533 36.8599C39.797 36.8599 36.7254 35.6552 34.3574 33.6594Z" fill="#F9A000"/>
<path fill-rule="evenodd" clip-rule="evenodd" d="M34.3582 33.6585C37.2739 31.2007 39.1227 27.5436 39.1227 23.4599C39.1227 19.3761 37.2739 15.7191 34.3582 13.2612C31.4425 15.7191 29.5938 19.3761 29.5938 23.4599C29.5938 27.5436 31.4425 31.2007 34.3582 33.6585Z" fill="#FF5E00"/>
<rect x="0.5" y="0.5" width="67" height="47" rx="7.5" stroke="#3D485B"/>
</svg>
