<svg width="17" height="16" viewBox="0 0 17 16" fill="none" xmlns="http://www.w3.org/2000/svg">
<path fill-rule="evenodd" clip-rule="evenodd" d="M8.20403 3.55206e-06C6.25446 -0.00197794 4.3679 0.690379 2.88244 1.95301C1.39698 3.21563 0.409707 4.96599 0.0975574 6.89041C-0.214592 8.81483 0.168785 10.7875 1.17898 12.4549C2.18917 14.1224 3.76015 15.3756 5.61039 15.9899C6.01832 16.0655 6.1694 15.8086 6.1694 15.5921C6.1694 15.3755 6.1694 14.882 6.1694 14.197C3.88801 14.7007 3.40453 13.0992 3.40453 13.0992C3.25251 12.6028 2.92956 12.1764 2.49298 11.8955C1.75266 11.3919 2.55341 11.3919 2.55341 11.3919C2.81292 11.4285 3.06069 11.5238 3.27796 11.6704C3.49522 11.8169 3.67628 12.011 3.80743 12.238C3.91886 12.44 4.06909 12.6181 4.2495 12.7619C4.42991 12.9058 4.63696 13.0126 4.85875 13.0762C5.08054 13.1398 5.31272 13.1591 5.54195 13.1328C5.77119 13.1064 5.99297 13.0351 6.19458 12.9229C6.22619 12.5086 6.4048 12.1192 6.6982 11.825C4.8751 11.6185 2.96134 10.9134 2.96134 7.77085C2.94882 6.95649 3.24995 6.1685 3.80239 5.57004C3.55585 4.86204 3.58461 4.08721 3.88297 3.39944C3.88297 3.39944 4.57292 3.17784 6.13918 4.24047C7.48414 3.8712 8.90376 3.8712 10.2487 4.24047C11.815 3.17784 12.4999 3.39944 12.4999 3.39944C12.8014 4.08623 12.832 4.86163 12.5855 5.57004C13.1379 6.1685 13.4391 6.95649 13.4266 7.77085C13.4266 10.9235 11.5078 11.6135 9.67963 11.7998C9.87565 11.9969 10.027 12.2338 10.1235 12.4944C10.2199 12.7551 10.2592 13.0335 10.2386 13.3107C10.2386 14.4086 10.2386 15.2949 10.2386 15.5619C10.2386 15.8288 10.3847 16.0353 10.8027 15.9597C12.6471 15.3396 14.2113 14.0844 15.2161 12.418C16.221 10.7517 16.6013 8.7826 16.2892 6.86191C15.977 4.94123 14.9927 3.1939 13.5119 1.93155C12.031 0.669203 10.1499 -0.0260534 8.20403 -0.0302124V3.55206e-06Z" fill="white"/>
</svg>
