<svg width="32" height="32" viewBox="0 0 32 32" fill="none" xmlns="http://www.w3.org/2000/svg">
<path d="M6.77539 0H8.21289V1.425H9.53789V0H10.9754V4.3125H9.53789V2.875H8.22539V4.3125H6.77539M12.8754 1.4375H11.6066V0H15.5879V1.4375H14.3129V4.3125H12.8754M16.2191 0H17.7254L18.6504 1.51875L19.5754 0H21.0816V4.3125H19.6441V2.175L18.6379 3.725L17.6316 2.175V4.3125H16.2191M21.7941 0H23.2316V2.8875H25.2691V4.3125H21.7941" fill="white"/>
<path d="M6.72461 29.4375L4.66211 6.28748H27.3371L25.2746 29.425L15.9809 32" fill="#E44D26"/>
<path d="M16 30.0312V8.1875H25.2687L23.5 27.9375" fill="#F16529"/>
<path d="M8.875 11.0187H16V13.8562H11.9875L12.25 16.7625H16V19.5937H9.65M9.775 21.0187H12.625L12.825 23.2875L16 24.1375V27.1L10.175 25.475" fill="#EBEBEB"/>
<path d="M23.0998 11.0187H15.9873V13.8562H22.8373M22.5811 16.7625H15.9873V19.6H19.4873L19.1561 23.2875L15.9873 24.1375V27.0875L21.7998 25.475" fill="white"/>
</svg>
