<svg width="31" height="32" viewBox="0 0 31 32" fill="none" xmlns="http://www.w3.org/2000/svg">
<path d="M10.8729 24.597L6.0221 24.597L2.0684 17.823L5.7387 11.2619L2.39182 11.2619L0 6.68152L16.1083 6.68152L18.628 11L10.9888 11L7.02915 17.8969L10.8729 24.597Z" fill="#2563EB"/>
<path d="M9.93945 17.7862L12.4656 13.3998L16.2914 20.3585L23.9609 20.3585L28.0246 13.6217L30.4044 17.6011L26.3771 24.8375L18.7439 24.8375L20.3182 27.2066L17.9389 32L9.93945 17.7862Z" fill="#2563EB"/>
<path d="M17.6275 17.7122L22.5151 17.7122L30.6668 3.6645L25.5538 3.52868L23.9671 6.41591L20.2576 -1.80511e-06L12.0448 -3.69131e-07L9.93359 4.15804L17.6215 4.15804L21.5021 10.9075L17.6275 17.7122Z" fill="#2563EB"/>
</svg>
