<svg width="20" height="16" viewBox="0 0 20 16" fill="none" xmlns="http://www.w3.org/2000/svg">
<g clip-path="url(#clip0_130_319)">
<path d="M13.6719 0.128937C13.3721 -0.0139757 13.127 0.130207 13.127 0.45033V13.1816L18.5995 15.794C19.2017 16.0862 19.6901 15.883 19.6901 15.3494V3.09071C19.6901 3.0399 19.6584 2.99544 19.6114 2.97003L13.6726 0.137194V0.130842L13.6719 0.128937Z" fill="#32FC8D"/>
<path d="M6.56323 10.049L12.8069 0.364613C12.9835 0.091492 13.3722 -0.0164862 13.6707 0.12325L19.6184 2.96244C19.6565 2.9815 19.6705 3.02596 19.6483 3.05772L13.1264 13.1829L6.56323 10.0503V10.049Z" fill="#0BE370"/>
<path d="M0.908285 0.301737C0.409045 0.0635496 0.239456 0.240761 0.532267 0.695539L6.56317 10.049L13.1263 13.1816L6.57777 3.02342C6.56825 3.00881 6.55491 2.99674 6.53966 2.98912L0.908285 0.302372V0.301737Z" fill="#14C767"/>
<path d="M6.56317 15.3444C6.56317 15.8779 6.15476 16.1193 5.65488 15.8805L0.544972 13.4414C0.245174 13.2991 0 12.9206 0 12.5998V0.644732C0 0.2179 0.32711 0.0248101 0.727265 0.215995L6.52823 2.98532C6.54983 2.99485 6.56317 3.01581 6.56317 3.03867V15.3418V15.3444Z" fill="#00AB6C"/>
</g>
<defs>
<clipPath id="clip0_130_319">
<rect width="19.6923" height="16" fill="white"/>
</clipPath>
</defs>
</svg>
