<svg width="16" height="16" viewBox="0 0 16 16" fill="none" xmlns="http://www.w3.org/2000/svg">
<path d="M3.42681 10.0788C3.42681 10.9984 2.68351 11.7418 1.76382 11.7418C0.844137 11.7418 0.10083 10.9984 0.10083 10.0788C0.10083 9.15908 0.844137 8.41577 1.76382 8.41577H3.42681V10.0788ZM4.25831 10.0788C4.25831 9.15908 5.00162 8.41577 5.9213 8.41577C6.84099 8.41577 7.58429 9.15908 7.58429 10.0788V14.2362C7.58429 15.1559 6.84099 15.8992 5.9213 15.8992C5.00162 15.8992 4.25831 15.1559 4.25831 14.2362V10.0788Z" fill="#E01E5A"/>
<path d="M5.92121 3.40155C5.00152 3.40155 4.25821 2.65824 4.25821 1.73855C4.25821 0.818869 5.00152 0.0755615 5.92121 0.0755615C6.84089 0.0755615 7.5842 0.818869 7.5842 1.73855V3.40155H5.92121ZM5.92121 4.24564C6.84089 4.24564 7.5842 4.98895 7.5842 5.90863C7.5842 6.82832 6.84089 7.57162 5.92121 7.57162H1.75113C0.831442 7.57162 0.0881348 6.82832 0.0881348 5.90863C0.0881348 4.98895 0.831442 4.24564 1.75113 4.24564H5.92121Z" fill="#36C5F0"/>
<path d="M12.5859 5.90863C12.5859 4.98895 13.3293 4.24564 14.2489 4.24564C15.1686 4.24564 15.9119 4.98895 15.9119 5.90863C15.9119 6.82832 15.1686 7.57162 14.2489 7.57162H12.5859V5.90863ZM11.7545 5.90863C11.7545 6.82832 11.0111 7.57162 10.0915 7.57162C9.17177 7.57162 8.42847 6.82832 8.42847 5.90863V1.73855C8.42847 0.818869 9.17177 0.0755615 10.0915 0.0755615C11.0111 0.0755615 11.7545 0.818869 11.7545 1.73855V5.90863Z" fill="#2EB67D"/>
<path d="M10.0915 12.5733C11.0111 12.5733 11.7545 13.3166 11.7545 14.2362C11.7545 15.1559 11.0111 15.8992 10.0915 15.8992C9.17177 15.8992 8.42847 15.1559 8.42847 14.2362V12.5733H10.0915ZM10.0915 11.7418C9.17177 11.7418 8.42847 10.9984 8.42847 10.0788C8.42847 9.15908 9.17177 8.41577 10.0915 8.41577H14.2615C15.1812 8.41577 15.9245 9.15908 15.9245 10.0788C15.9245 10.9984 15.1812 11.7418 14.2615 11.7418H10.0915Z" fill="#ECB22E"/>
</svg>
