<svg width="24" height="24" viewBox="0 0 24 24" fill="none" xmlns="http://www.w3.org/2000/svg">
<path d="M9.406 17.183C9.837 16.158 9.356 14.977 8.33 14.546L6.568 13.805C6.899 13.68 7.222 13.623 7.55 13.622C9.068 13.622 10.315 14.858 10.329 16.376C10.343 17.914 9.112 19.168 7.576 19.182C6.417 19.187 5.438 18.498 5.005 17.517L6.768 18.258C7.795 18.69 8.975 18.208 9.406 17.183ZM19 0H5C2.239 0 0 2.239 0 5V11.043L5.585 13.392C6.181 13.002 6.868 12.793 7.631 12.809L10.648 8.588C10.696 6.047 12.77 4 15.322 4C17.904 4 20 6.094 20 8.677C20 11.258 17.902 13.38 15.268 13.352L11.153 16.419L11.144 16.423C11.132 18.385 9.551 19.981 7.583 20C5.806 20.015 4.349 18.751 4.023 17.105L0 15.413V19C0 21.761 2.239 24 5 24H19C21.762 24 24 21.761 24 19V5C24 2.239 21.762 0 19 0ZM15.322 11.857C13.57 11.857 12.143 10.43 12.143 8.677C12.143 6.924 13.57 5.498 15.322 5.498C17.076 5.498 18.501 6.924 18.501 8.677C18.501 10.43 17.076 11.857 15.322 11.857ZM15.322 11.078C16.647 11.078 17.722 10.001 17.722 8.677C17.722 7.354 16.647 6.276 15.322 6.276C13.998 6.276 12.921 7.354 12.921 8.677C12.921 10.001 13.998 11.078 15.322 11.078Z" fill="white"/>
</svg>
