<svg width="68" height="48" viewBox="0 0 68 48" fill="none" xmlns="http://www.w3.org/2000/svg">
<rect x="0.6" y="0.6" width="66.8" height="46.8" rx="7.4" fill="#1E2431"/>
<path fill-rule="evenodd" clip-rule="evenodd" d="M21.4991 31.7165H17.3797L14.2905 19.5847C14.1439 19.0267 13.8326 18.5333 13.3747 18.3008C12.2318 17.7164 10.9725 17.2514 9.59863 17.0168V16.5498H16.2348C17.1507 16.5498 17.8376 17.2514 17.9521 18.0662L19.5549 26.8173L23.6724 16.5498H27.6774L21.4991 31.7165ZM29.9678 31.7164H26.0773L29.2809 16.5497H33.1714L29.9678 31.7164ZM38.2028 20.7514C38.3173 19.9345 39.0042 19.4675 39.8056 19.4675C41.065 19.3502 42.4368 19.5847 43.5817 20.1671L44.2686 16.9016C43.1237 16.4345 41.8644 16.2 40.7215 16.2C36.9455 16.2 34.1978 18.3008 34.1978 21.2165C34.1978 23.4345 36.1441 24.5992 37.5179 25.3008C39.0042 26.0004 39.5767 26.4675 39.4622 27.1671C39.4622 28.2165 38.3173 28.6836 37.1745 28.6836C35.8006 28.6836 34.4268 28.3338 33.1695 27.7494L32.4826 31.0169C33.8564 31.5992 35.3427 31.8338 36.7165 31.8338C40.9505 31.949 43.5817 29.8502 43.5817 26.7C43.5817 22.7329 38.2028 22.5004 38.2028 20.7514ZM57.1982 31.7164L54.1091 16.5497H50.791C50.1041 16.5497 49.4172 17.0168 49.1882 17.7164L43.4679 31.7164H47.4729L48.2723 29.5004H53.1932L53.6511 31.7164H57.1982ZM51.3636 20.6342L52.5065 26.3502H49.3029L51.3636 20.6342Z" fill="white"/>
<rect x="0.6" y="0.6" width="66.8" height="46.8" rx="7.4" stroke="#3D485B" stroke-width="1.2"/>
</svg>
